<svg width="50" height="50" viewBox="0 0 50 50" fill="none" xmlns="http://www.w3.org/2000/svg">
<g clip-path="url(#clip0)">
<path d="M46.875 37.5C46.875 38.3288 46.5458 39.1237 45.9597 39.7097C45.3737 40.2958 44.5788 40.625 43.75 40.625H6.25C5.4212 40.625 4.62634 40.2958 4.04029 39.7097C3.45424 39.1237 3.125 38.3288 3.125 37.5V18.75C3.125 17.9212 3.45424 17.1263 4.04029 16.5403C4.62634 15.9542 5.4212 15.625 6.25 15.625H9.9125C12.3976 15.6236 14.7805 14.6356 16.5375 12.8781L19.1313 10.2906C19.7156 9.70606 20.5078 9.37683 21.3344 9.375H28.6594C29.4881 9.37518 30.2828 9.70453 30.8688 10.2906L33.4562 12.8781C34.327 13.7491 35.3608 14.44 36.4986 14.9113C37.6364 15.3826 38.8559 15.6251 40.0875 15.625H43.75C44.5788 15.625 45.3737 15.9542 45.9597 16.5403C46.5458 17.1263 46.875 17.9212 46.875 18.75V37.5ZM6.25 12.5C4.5924 12.5 3.00269 13.1585 1.83058 14.3306C0.65848 15.5027 0 17.0924 0 18.75L0 37.5C0 39.1576 0.65848 40.7473 1.83058 41.9194C3.00269 43.0915 4.5924 43.75 6.25 43.75H43.75C45.4076 43.75 46.9973 43.0915 48.1694 41.9194C49.3415 40.7473 50 39.1576 50 37.5V18.75C50 17.0924 49.3415 15.5027 48.1694 14.3306C46.9973 13.1585 45.4076 12.5 43.75 12.5H40.0875C38.43 12.4996 36.8406 11.8409 35.6687 10.6688L33.0813 8.08125C31.9094 6.90907 30.32 6.25035 28.6625 6.25H21.3375C19.68 6.25035 18.0906 6.90907 16.9188 8.08125L14.3313 10.6688C13.1594 11.8409 11.57 12.4996 9.9125 12.5H6.25Z" fill="white"/>
<path d="M25 34.375C22.928 34.375 20.9409 33.5519 19.4757 32.0868C18.0106 30.6216 17.1875 28.6345 17.1875 26.5625C17.1875 24.4905 18.0106 22.5034 19.4757 21.0382C20.9409 19.5731 22.928 18.75 25 18.75C27.072 18.75 29.0591 19.5731 30.5243 21.0382C31.9894 22.5034 32.8125 24.4905 32.8125 26.5625C32.8125 28.6345 31.9894 30.6216 30.5243 32.0868C29.0591 33.5519 27.072 34.375 25 34.375ZM25 37.5C27.9008 37.5 30.6828 36.3477 32.734 34.2965C34.7852 32.2453 35.9375 29.4633 35.9375 26.5625C35.9375 23.6617 34.7852 20.8797 32.734 18.8285C30.6828 16.7773 27.9008 15.625 25 15.625C22.0992 15.625 19.3172 16.7773 17.266 18.8285C15.2148 20.8797 14.0625 23.6617 14.0625 26.5625C14.0625 29.4633 15.2148 32.2453 17.266 34.2965C19.3172 36.3477 22.0992 37.5 25 37.5ZM9.375 20.3125C9.375 20.7269 9.21038 21.1243 8.91735 21.4174C8.62433 21.7104 8.2269 21.875 7.8125 21.875C7.3981 21.875 7.00067 21.7104 6.70765 21.4174C6.41462 21.1243 6.25 20.7269 6.25 20.3125C6.25 19.8981 6.41462 19.5007 6.70765 19.2076C7.00067 18.9146 7.3981 18.75 7.8125 18.75C8.2269 18.75 8.62433 18.9146 8.91735 19.2076C9.21038 19.5007 9.375 19.8981 9.375 20.3125Z" fill="white"/>
</g>
<defs>
<clipPath id="clip0">
<rect width="50" height="50" fill="white"/>
</clipPath>
</defs>
</svg>
