<svg width="50" height="50" viewBox="0 0 50 50" fill="none" xmlns="http://www.w3.org/2000/svg">
<path d="M33.7885 4.10343L17.5324 20.3595C10.7301 27.1788 5.57884 35.4646 2.47317 44.5821C2.32507 45.0134 2.30148 45.4776 2.40511 45.9217C2.50875 46.3657 2.73541 46.7716 3.05911 47.0927L3.0676 47.1012C3.29286 47.3281 3.56078 47.5083 3.85593 47.6314C4.15108 47.7544 4.46765 47.8179 4.78743 47.8182C5.05651 47.818 5.32373 47.7737 5.57844 47.6869C14.696 44.5813 22.9818 39.43 29.8011 32.6276L46.0567 16.3717C47.6835 14.7448 48.5975 12.5383 48.5975 10.2376C48.5975 7.93686 47.6836 5.73035 46.0567 4.10348C45.2512 3.29793 44.2949 2.65894 43.2424 2.22298C42.1899 1.78701 41.0618 1.56263 39.9226 1.56262C37.6219 1.56261 35.4154 2.47657 33.7885 4.10343ZM27.5909 30.418C21.4467 36.5461 14.0464 41.2686 5.90032 44.2599C8.89145 36.1138 13.6139 28.7134 19.742 22.5691L29.4258 12.8855L37.2746 20.7343L27.5909 30.418ZM43.847 14.162L39.4843 18.5246L31.6355 10.6758L35.9982 6.3131C36.5133 5.7965 37.1252 5.38653 37.7988 5.10662C38.4725 4.82672 39.1948 4.68237 39.9243 4.68185C40.6538 4.68132 41.3763 4.82462 42.0504 5.10355C42.7244 5.38249 43.3369 5.79158 43.8528 6.30743C44.3686 6.82328 44.7777 7.43576 45.0566 8.10985C45.3355 8.78394 45.4788 9.5064 45.4783 10.2359C45.4778 10.9654 45.3334 11.6877 45.0535 12.3614C44.7736 13.035 44.3636 13.6469 43.847 14.162Z" fill="black"/>
</svg>
